<mxfile host="65bd71144e">
    <diagram id="SdmrrcvR9TLJoBex3L37" name="Page-1">
        <mxGraphModel dx="2117" dy="1045" grid="1" gridSize="10" guides="1" tooltips="1" connect="1" arrows="1" fold="1" page="1" pageScale="1" pageWidth="850" pageHeight="1100" math="0" shadow="0">
            <root>
                <mxCell id="0"/>
                <mxCell id="1" parent="0"/>
                <mxCell id="8" value="Host System" style="verticalAlign=top;align=left;spacingTop=8;spacingLeft=2;spacingRight=12;shape=cube;size=10;direction=south;fontStyle=4;html=1;" vertex="1" parent="1">
                    <mxGeometry x="440" y="120" width="920" height="810" as="geometry"/>
                </mxCell>
                <mxCell id="78" value="" style="group" vertex="1" connectable="0" parent="1">
                    <mxGeometry x="1080" y="651" width="250" height="160" as="geometry"/>
                </mxCell>
                <mxCell id="79" value="" style="group" vertex="1" connectable="0" parent="78">
                    <mxGeometry width="250" height="160" as="geometry"/>
                </mxCell>
                <mxCell id="80" value="Runtime Container" style="verticalAlign=top;align=left;spacingTop=8;spacingLeft=2;spacingRight=12;shape=cube;size=10;direction=south;fontStyle=4;html=1;" vertex="1" parent="79">
                    <mxGeometry width="250" height="160" as="geometry"/>
                </mxCell>
                <mxCell id="81" value="«Component»&lt;br&gt;&lt;b&gt;Prefect Flow&lt;/b&gt;" style="html=1;dropTarget=0;" vertex="1" parent="79">
                    <mxGeometry x="35" y="50" width="180" height="90" as="geometry"/>
                </mxCell>
                <mxCell id="82" value="" style="shape=module;jettyWidth=8;jettyHeight=4;" vertex="1" parent="81">
                    <mxGeometry x="1" width="20" height="20" relative="1" as="geometry">
                        <mxPoint x="-27" y="7" as="offset"/>
                    </mxGeometry>
                </mxCell>
                <mxCell id="73" value="" style="group" vertex="1" connectable="0" parent="1">
                    <mxGeometry x="500" y="650" width="250" height="160" as="geometry"/>
                </mxCell>
                <mxCell id="74" value="" style="group" vertex="1" connectable="0" parent="73">
                    <mxGeometry width="250" height="160" as="geometry"/>
                </mxCell>
                <mxCell id="75" value="Runtime Container" style="verticalAlign=top;align=left;spacingTop=8;spacingLeft=2;spacingRight=12;shape=cube;size=10;direction=south;fontStyle=4;html=1;" vertex="1" parent="74">
                    <mxGeometry width="250" height="160" as="geometry"/>
                </mxCell>
                <mxCell id="76" value="«Component»&lt;br&gt;&lt;b&gt;Prefect Flow&lt;/b&gt;" style="html=1;dropTarget=0;" vertex="1" parent="74">
                    <mxGeometry x="35" y="50" width="180" height="90" as="geometry"/>
                </mxCell>
                <mxCell id="77" value="" style="shape=module;jettyWidth=8;jettyHeight=4;" vertex="1" parent="76">
                    <mxGeometry x="1" width="20" height="20" relative="1" as="geometry">
                        <mxPoint x="-27" y="7" as="offset"/>
                    </mxGeometry>
                </mxCell>
                <mxCell id="68" value="" style="group" vertex="1" connectable="0" parent="1">
                    <mxGeometry x="1070" y="660" width="250" height="160" as="geometry"/>
                </mxCell>
                <mxCell id="69" value="" style="group" vertex="1" connectable="0" parent="68">
                    <mxGeometry width="250" height="160" as="geometry"/>
                </mxCell>
                <mxCell id="70" value="Runtime Container" style="verticalAlign=top;align=left;spacingTop=8;spacingLeft=2;spacingRight=12;shape=cube;size=10;direction=south;fontStyle=4;html=1;" vertex="1" parent="69">
                    <mxGeometry width="250" height="160" as="geometry"/>
                </mxCell>
                <mxCell id="71" value="«Component»&lt;br&gt;&lt;b&gt;Prefect Flow&lt;/b&gt;" style="html=1;dropTarget=0;" vertex="1" parent="69">
                    <mxGeometry x="35" y="50" width="180" height="90" as="geometry"/>
                </mxCell>
                <mxCell id="72" value="" style="shape=module;jettyWidth=8;jettyHeight=4;" vertex="1" parent="71">
                    <mxGeometry x="1" width="20" height="20" relative="1" as="geometry">
                        <mxPoint x="-27" y="7" as="offset"/>
                    </mxGeometry>
                </mxCell>
                <mxCell id="63" value="" style="group" vertex="1" connectable="0" parent="1">
                    <mxGeometry x="490" y="660" width="250" height="160" as="geometry"/>
                </mxCell>
                <mxCell id="64" value="" style="group" vertex="1" connectable="0" parent="63">
                    <mxGeometry width="250" height="160" as="geometry"/>
                </mxCell>
                <mxCell id="65" value="Runtime Container" style="verticalAlign=top;align=left;spacingTop=8;spacingLeft=2;spacingRight=12;shape=cube;size=10;direction=south;fontStyle=4;html=1;" vertex="1" parent="64">
                    <mxGeometry width="250" height="160" as="geometry"/>
                </mxCell>
                <mxCell id="66" value="«Component»&lt;br&gt;&lt;b&gt;Prefect Flow&lt;/b&gt;" style="html=1;dropTarget=0;" vertex="1" parent="64">
                    <mxGeometry x="35" y="50" width="180" height="90" as="geometry"/>
                </mxCell>
                <mxCell id="67" value="" style="shape=module;jettyWidth=8;jettyHeight=4;" vertex="1" parent="66">
                    <mxGeometry x="1" width="20" height="20" relative="1" as="geometry">
                        <mxPoint x="-27" y="7" as="offset"/>
                    </mxGeometry>
                </mxCell>
                <mxCell id="7" value="" style="group" vertex="1" connectable="0" parent="1">
                    <mxGeometry x="720" y="170" width="350" height="810" as="geometry"/>
                </mxCell>
                <mxCell id="14" value="" style="group" vertex="1" connectable="0" parent="7">
                    <mxGeometry x="340" y="500" width="250" height="160" as="geometry"/>
                </mxCell>
                <mxCell id="15" value="" style="group" vertex="1" connectable="0" parent="14">
                    <mxGeometry width="250" height="160" as="geometry"/>
                </mxCell>
                <mxCell id="16" value="Runtime Container" style="verticalAlign=top;align=left;spacingTop=8;spacingLeft=2;spacingRight=12;shape=cube;size=10;direction=south;fontStyle=4;html=1;" vertex="1" parent="15">
                    <mxGeometry width="250" height="160" as="geometry"/>
                </mxCell>
                <mxCell id="17" value="«Component»&lt;br&gt;&lt;b&gt;Prefect Flow&lt;/b&gt;" style="html=1;dropTarget=0;" vertex="1" parent="15">
                    <mxGeometry x="35" y="50" width="180" height="90" as="geometry"/>
                </mxCell>
                <mxCell id="18" value="" style="shape=module;jettyWidth=8;jettyHeight=4;" vertex="1" parent="17">
                    <mxGeometry x="1" width="20" height="20" relative="1" as="geometry">
                        <mxPoint x="-27" y="7" as="offset"/>
                    </mxGeometry>
                </mxCell>
                <mxCell id="19" value="" style="group" vertex="1" connectable="0" parent="7">
                    <mxGeometry x="50" y="20" width="250" height="160" as="geometry"/>
                </mxCell>
                <mxCell id="20" value="Prefect Container" style="verticalAlign=top;align=left;spacingTop=8;spacingLeft=2;spacingRight=12;shape=cube;size=10;direction=south;fontStyle=4;html=1;" vertex="1" parent="19">
                    <mxGeometry width="250" height="160" as="geometry"/>
                </mxCell>
                <mxCell id="21" value="«Component»&lt;br&gt;&lt;b&gt;Prefect Server&lt;/b&gt;" style="html=1;dropTarget=0;" vertex="1" parent="19">
                    <mxGeometry x="35" y="50" width="180" height="90" as="geometry"/>
                </mxCell>
                <mxCell id="22" value="" style="shape=module;jettyWidth=8;jettyHeight=4;" vertex="1" parent="21">
                    <mxGeometry x="1" width="20" height="20" relative="1" as="geometry">
                        <mxPoint x="-27" y="7" as="offset"/>
                    </mxGeometry>
                </mxCell>
                <mxCell id="9" value="" style="group" vertex="1" connectable="0" parent="7">
                    <mxGeometry x="340" y="250" width="250" height="160" as="geometry"/>
                </mxCell>
                <mxCell id="10" value="" style="group" vertex="1" connectable="0" parent="9">
                    <mxGeometry width="250" height="160" as="geometry"/>
                </mxCell>
                <mxCell id="11" value="Worker Container" style="verticalAlign=top;align=left;spacingTop=8;spacingLeft=2;spacingRight=12;shape=cube;size=10;direction=south;fontStyle=4;html=1;" vertex="1" parent="10">
                    <mxGeometry width="250" height="160" as="geometry"/>
                </mxCell>
                <mxCell id="12" value="«Component»&lt;br&gt;&lt;b&gt;Prefect Retrieval Worker&lt;/b&gt;" style="html=1;dropTarget=0;" vertex="1" parent="10">
                    <mxGeometry x="35" y="50" width="180" height="90" as="geometry"/>
                </mxCell>
                <mxCell id="13" value="" style="shape=module;jettyWidth=8;jettyHeight=4;" vertex="1" parent="12">
                    <mxGeometry x="1" width="20" height="20" relative="1" as="geometry">
                        <mxPoint x="-27" y="7" as="offset"/>
                    </mxGeometry>
                </mxCell>
                <object label="" id="35">
                    <mxCell style="ellipse;whiteSpace=wrap;html=1;align=center;aspect=fixed;resizable=0;points=[];outlineConnect=0;sketch=0;" vertex="1" parent="1">
                        <mxGeometry x="510" y="357" width="10" height="10" as="geometry"/>
                    </mxCell>
                </object>
                <mxCell id="38" value="«Component»&lt;br&gt;&lt;b&gt;Docker Socket&lt;/b&gt;" style="html=1;dropTarget=0;" vertex="1" parent="1">
                    <mxGeometry x="805" y="620" width="180" height="90" as="geometry"/>
                </mxCell>
                <mxCell id="39" value="" style="shape=module;jettyWidth=8;jettyHeight=4;" vertex="1" parent="38">
                    <mxGeometry x="1" width="20" height="20" relative="1" as="geometry">
                        <mxPoint x="-27" y="7" as="offset"/>
                    </mxGeometry>
                </mxCell>
                <mxCell id="40" value="" style="edgeStyle=elbowEdgeStyle;elbow=horizontal;endArrow=classic;html=1;curved=0;rounded=0;endSize=8;startSize=8;dashed=1;entryX=1;entryY=0.25;entryDx=0;entryDy=0;exitX=0;exitY=0.5;exitDx=0;exitDy=0;" edge="1" parent="1">
                    <mxGeometry width="50" height="50" relative="1" as="geometry">
                        <mxPoint x="1095" y="515" as="sourcePoint"/>
                        <mxPoint x="985" y="642.5" as="targetPoint"/>
                        <Array as="points">
                            <mxPoint x="1020" y="580"/>
                        </Array>
                    </mxGeometry>
                </mxCell>
                <mxCell id="41" value="" style="edgeStyle=elbowEdgeStyle;elbow=horizontal;endArrow=classic;html=1;curved=0;rounded=0;endSize=8;startSize=8;dashed=1;entryX=0;entryY=0;entryDx=85;entryDy=250;exitX=1;exitY=0.75;exitDx=0;exitDy=0;entryPerimeter=0;" edge="1" parent="1" source="38" target="16">
                    <mxGeometry width="50" height="50" relative="1" as="geometry">
                        <mxPoint x="845" y="525" as="sourcePoint"/>
                        <mxPoint x="710" y="652.5" as="targetPoint"/>
                    </mxGeometry>
                </mxCell>
                <mxCell id="42" value="" style="group" vertex="1" connectable="0" parent="1">
                    <mxGeometry x="480" y="670" width="250" height="160" as="geometry"/>
                </mxCell>
                <mxCell id="43" value="" style="group" vertex="1" connectable="0" parent="42">
                    <mxGeometry width="250" height="160" as="geometry"/>
                </mxCell>
                <mxCell id="44" value="Runtime Container" style="verticalAlign=top;align=left;spacingTop=8;spacingLeft=2;spacingRight=12;shape=cube;size=10;direction=south;fontStyle=4;html=1;" vertex="1" parent="43">
                    <mxGeometry width="250" height="160" as="geometry"/>
                </mxCell>
                <mxCell id="45" value="«Component»&lt;br&gt;&lt;b&gt;Prefect Flow&lt;/b&gt;" style="html=1;dropTarget=0;" vertex="1" parent="43">
                    <mxGeometry x="35" y="50" width="180" height="90" as="geometry"/>
                </mxCell>
                <mxCell id="46" value="" style="shape=module;jettyWidth=8;jettyHeight=4;" vertex="1" parent="45">
                    <mxGeometry x="1" width="20" height="20" relative="1" as="geometry">
                        <mxPoint x="-27" y="7" as="offset"/>
                    </mxGeometry>
                </mxCell>
                <mxCell id="47" value="" style="group" vertex="1" connectable="0" parent="1">
                    <mxGeometry x="480" y="420" width="250" height="160" as="geometry"/>
                </mxCell>
                <mxCell id="48" value="" style="group" vertex="1" connectable="0" parent="47">
                    <mxGeometry width="250" height="160" as="geometry"/>
                </mxCell>
                <mxCell id="49" value="Worker Container" style="verticalAlign=top;align=left;spacingTop=8;spacingLeft=2;spacingRight=12;shape=cube;size=10;direction=south;fontStyle=4;html=1;" vertex="1" parent="48">
                    <mxGeometry width="250" height="160" as="geometry"/>
                </mxCell>
                <mxCell id="50" value="«Component»&lt;br&gt;&lt;b&gt;Prefect Archival Worker&lt;/b&gt;" style="html=1;dropTarget=0;" vertex="1" parent="48">
                    <mxGeometry x="35" y="50" width="180" height="90" as="geometry"/>
                </mxCell>
                <mxCell id="51" value="" style="shape=module;jettyWidth=8;jettyHeight=4;" vertex="1" parent="50">
                    <mxGeometry x="1" width="20" height="20" relative="1" as="geometry">
                        <mxPoint x="-27" y="7" as="offset"/>
                    </mxGeometry>
                </mxCell>
                <mxCell id="52" value="" style="edgeStyle=elbowEdgeStyle;elbow=horizontal;endArrow=classic;html=1;curved=0;rounded=0;endSize=8;startSize=8;dashed=1;entryX=0;entryY=0.25;entryDx=0;entryDy=0;exitX=1;exitY=0.5;exitDx=0;exitDy=0;" edge="1" parent="1" source="50" target="38">
                    <mxGeometry width="50" height="50" relative="1" as="geometry">
                        <mxPoint x="1105" y="525" as="sourcePoint"/>
                        <mxPoint x="995" y="652.5" as="targetPoint"/>
                        <Array as="points">
                            <mxPoint x="770" y="580"/>
                        </Array>
                    </mxGeometry>
                </mxCell>
                <mxCell id="53" value="" style="edgeStyle=elbowEdgeStyle;elbow=horizontal;endArrow=classic;html=1;curved=0;rounded=0;endSize=8;startSize=8;dashed=1;entryX=0;entryY=0;entryDx=75;entryDy=0;exitX=0;exitY=0.75;exitDx=0;exitDy=0;entryPerimeter=0;" edge="1" parent="1" source="38" target="44">
                    <mxGeometry width="50" height="50" relative="1" as="geometry">
                        <mxPoint x="995" y="697.5" as="sourcePoint"/>
                        <mxPoint x="1070" y="765" as="targetPoint"/>
                    </mxGeometry>
                </mxCell>
                <mxCell id="54" value="" style="group" vertex="1" connectable="0" parent="1">
                    <mxGeometry x="810" y="800" width="170" height="110" as="geometry"/>
                </mxCell>
                <mxCell id="55" value="" style="group" vertex="1" connectable="0" parent="54">
                    <mxGeometry width="170" height="110.00000000000001" as="geometry"/>
                </mxCell>
                <mxCell id="56" value="Docker Volumes" style="verticalAlign=top;align=left;spacingTop=8;spacingLeft=2;spacingRight=12;shape=cube;size=10;direction=south;fontStyle=4;html=1;" vertex="1" parent="55">
                    <mxGeometry width="170" height="110.00000000000001" as="geometry"/>
                </mxCell>
                <mxCell id="57" value="«Component»&lt;br&gt;&lt;b&gt;ETH LTS NFS Share&lt;/b&gt;" style="html=1;dropTarget=0;" vertex="1" parent="55">
                    <mxGeometry x="23.8" y="34.375" width="122.4" height="61.87500000000001" as="geometry"/>
                </mxCell>
                <mxCell id="58" value="" style="shape=module;jettyWidth=8;jettyHeight=4;" vertex="1" parent="57">
                    <mxGeometry x="1" width="20" height="20" relative="1" as="geometry">
                        <mxPoint x="-27" y="7" as="offset"/>
                    </mxGeometry>
                </mxCell>
                <mxCell id="59" value="" style="edgeStyle=elbowEdgeStyle;elbow=horizontal;endArrow=classic;html=1;curved=0;rounded=0;endSize=8;startSize=8;dashed=1;entryX=0;entryY=0;entryDx=160;entryDy=130;entryPerimeter=0;exitX=0.527;exitY=0;exitDx=0;exitDy=0;exitPerimeter=0;" edge="1" parent="1" source="56" target="16">
                    <mxGeometry width="50" height="50" relative="1" as="geometry">
                        <mxPoint x="1030" y="890" as="sourcePoint"/>
                        <mxPoint x="1080" y="840" as="targetPoint"/>
                        <Array as="points">
                            <mxPoint x="1180" y="850"/>
                        </Array>
                    </mxGeometry>
                </mxCell>
                <mxCell id="60" value="" style="edgeStyle=elbowEdgeStyle;elbow=horizontal;endArrow=classic;html=1;curved=0;rounded=0;endSize=8;startSize=8;dashed=1;entryX=0;entryY=0;entryDx=160;entryDy=130;entryPerimeter=0;exitX=0;exitY=0;exitDx=60.00000000000001;exitDy=170;exitPerimeter=0;" edge="1" parent="1" source="56" target="44">
                    <mxGeometry width="50" height="50" relative="1" as="geometry">
                        <mxPoint x="770" y="770" as="sourcePoint"/>
                        <mxPoint x="970" y="750" as="targetPoint"/>
                        <Array as="points">
                            <mxPoint x="600" y="870"/>
                        </Array>
                    </mxGeometry>
                </mxCell>
                <mxCell id="61" value="" style="edgeStyle=elbowEdgeStyle;elbow=horizontal;endArrow=classic;html=1;curved=0;rounded=0;endSize=8;startSize=8;dashed=1;entryX=0;entryY=0;entryDx=85;entryDy=250;exitX=0;exitY=0;exitDx=0;exitDy=120;exitPerimeter=0;entryPerimeter=0;" edge="1" parent="1" source="49" target="20">
                    <mxGeometry width="50" height="50" relative="1" as="geometry">
                        <mxPoint x="705" y="525" as="sourcePoint"/>
                        <mxPoint x="815" y="652.5" as="targetPoint"/>
                        <Array as="points">
                            <mxPoint x="610" y="310"/>
                        </Array>
                    </mxGeometry>
                </mxCell>
                <mxCell id="62" value="" style="edgeStyle=elbowEdgeStyle;elbow=horizontal;endArrow=classic;html=1;curved=0;rounded=0;endSize=8;startSize=8;dashed=1;entryX=0;entryY=0;entryDx=75;entryDy=0;entryPerimeter=0;" edge="1" parent="1" target="20">
                    <mxGeometry width="50" height="50" relative="1" as="geometry">
                        <mxPoint x="1210" y="420" as="sourcePoint"/>
                        <mxPoint x="780" y="285" as="targetPoint"/>
                        <Array as="points">
                            <mxPoint x="1210" y="310"/>
                        </Array>
                    </mxGeometry>
                </mxCell>
                <mxCell id="83" value="" style="group" vertex="1" connectable="0" parent="1">
                    <mxGeometry x="805" y="390" width="180" height="110" as="geometry"/>
                </mxCell>
                <mxCell id="84" value="Postgres Container" style="verticalAlign=top;align=left;spacingTop=8;spacingLeft=2;spacingRight=12;shape=cube;size=10;direction=south;fontStyle=4;html=1;" vertex="1" parent="83">
                    <mxGeometry width="180" height="110" as="geometry"/>
                </mxCell>
                <mxCell id="85" value="«Component»&lt;br&gt;&lt;b&gt;Postgres&lt;/b&gt;" style="html=1;dropTarget=0;" vertex="1" parent="83">
                    <mxGeometry x="25.2" y="34.375" width="129.60000000000002" height="61.875" as="geometry"/>
                </mxCell>
                <mxCell id="86" value="" style="shape=module;jettyWidth=8;jettyHeight=4;" vertex="1" parent="85">
                    <mxGeometry x="1" width="20" height="20" relative="1" as="geometry">
                        <mxPoint x="-27" y="7" as="offset"/>
                    </mxGeometry>
                </mxCell>
                <mxCell id="88" value="" style="endArrow=classic;html=1;dashed=1;exitX=0.5;exitY=1;exitDx=0;exitDy=0;" edge="1" parent="1" source="21">
                    <mxGeometry width="50" height="50" relative="1" as="geometry">
                        <mxPoint x="1150" y="250" as="sourcePoint"/>
                        <mxPoint x="895" y="390" as="targetPoint"/>
                    </mxGeometry>
                </mxCell>
            </root>
        </mxGraphModel>
    </diagram>
</mxfile>